# xmcd
#
# Track frame offsets:
#	150
#	13920
#	32147
#	46305
#	58537
#	73842
#	96417
#	110765
#	125765
#	142437
#	158425
#	171040
#	182587
#
# Disc length: 2605 seconds
#
# Revision: 1
# Processed by: cddbd v1.5.2PL0 Copyright (c) Steve Scherf et al.
# Submitted via: EasyCDDAExtractor 11.1.0.1
#
DISCID=c00a2b0d
DTITLE=Jan Preston - The Piano Has The Blues
DYEAR=2001
DGENRE=Blues
TTITLE0=Bad Luck Woman
TTITLE1=Commitment Problem
TTITLE2=Boogie #1
TTITLE3=Turn Me On
TTITLE4=Cry To Me
TTITLE5=Hurts So Bad
TTITLE6=Wild Women Don't Have The Blues
TTITLE7=Sydney Lace
TTITLE8=Revenge
TTITLE9=The Piano Has The Blues
TTITLE10=Mama Cat Cuttin No Slack
TTITLE11=Good With His Hands
TTITLE12=After The Applause
EXTD=YEAR: 2002 ID3G: 0
EXTT0=
EXTT1=
EXTT2=
EXTT3=
EXTT4=
EXTT5=
EXTT6=
EXTT7=
EXTT8=
EXTT9=
EXTT10=
EXTT11=
EXTT12=
PLAYORDER=
